<svg width="50" height="50" viewBox="0 0 50 50" fill="none" xmlns="http://www.w3.org/2000/svg">
<circle cx="25" cy="25" r="25" fill="#D9D9D9"/>
<path fill-rule="evenodd" clip-rule="evenodd" d="M25 14.4231C22.684 14.4231 20.8065 16.2886 20.8065 18.5897C20.8065 20.8909 22.684 22.7564 25 22.7564C27.316 22.7564 29.1935 20.8909 29.1935 18.5897C29.1935 16.2886 27.316 14.4231 25 14.4231ZM18.871 18.5897C18.871 15.2265 21.615 12.5 25 12.5C28.385 12.5 31.129 15.2265 31.129 18.5897C31.129 21.953 28.385 24.6795 25 24.6795C21.615 24.6795 18.871 21.953 18.871 18.5897Z" fill="#111111"/>
<path fill-rule="evenodd" clip-rule="evenodd" d="M21.8327 29.1667C19.1281 29.1667 16.9355 31.3452 16.9355 34.0325C16.9355 34.1736 16.9614 34.2732 16.9886 34.3312C17.0116 34.3802 17.0313 34.3941 17.0478 34.403C17.7998 34.8096 19.9085 35.5769 25 35.5769C30.0915 35.5769 32.2002 34.8096 32.9522 34.403C32.9687 34.3941 32.9884 34.3802 33.0114 34.3312C33.0386 34.2732 33.0645 34.1736 33.0645 34.0325C33.0645 31.3452 30.8719 29.1667 28.1673 29.1667H21.8327ZM15 34.0325C15 30.2831 18.0591 27.2436 21.8327 27.2436H28.1673C31.9409 27.2436 35 30.2831 35 34.0325C35 34.7208 34.7492 35.6208 33.8774 36.0922C32.7224 36.7166 30.2448 37.5 25 37.5C19.7552 37.5 17.2776 36.7166 16.1226 36.0922C15.2508 35.6208 15 34.7208 15 34.0325Z" fill="#111111"/>
</svg>
